<?xml version="1.0" ?><svg viewBox="0 0 512 512" xmlns="http://www.w3.org/2000/svg"><defs><style>.cls-1{fill:#f9b7b7;}.cls-2{fill:#0071af;}.cls-3{fill:#cbe2ef;}.cls-4{fill:#ea8383;}.cls-5{fill:#d27676;}.cls-6{fill:#d49c9c;}.cls-7{fill:#ededed;}.cls-8{fill:#bebebe;}.cls-9{fill:#f9dbdb;}.cls-10{fill:#cacaca;}.cls-11{fill:#a2a2a2;}.cls-12{fill:#c76f6f;}.cls-13{fill:#006095;}.cls-14{opacity:0.15;}</style></defs><g data-name="/ FILLED_OUTLINE" id="_FILLED_OUTLINE"><path class="cls-1" d="M280,208V72L120,40l32,112-4.40649,17.62585a16,16,0,0,0,10.46264,19.05945L168,192l9.418,18.83594a31.9998,31.9998,0,0,0,20.86053,16.73364l8.40815,2.102a16.0001,16.0001,0,0,1,11.64172,11.64172L224,264l72-8Z"/><path class="cls-2" d="M293.76,233.72a16.007,16.007,0,0,0-11.23.78l-52.36,23.95A80.01025,80.01025,0,0,0,184,330.95V488H320v-.06006A15.9957,15.9957,0,0,1,336,472V246.33Z"/><path class="cls-1" d="M136,280l-3.10815-12.43262a40.66218,40.66218,0,0,0-23.43061-27.51257l-4.13025-1.77014a40.6624,40.6624,0,0,0-51.32251,17.20044h0a40.6623,40.6623,0,0,0,4.06714,46.20556L67.80756,313.369A40.66224,40.66224,0,0,0,99.04523,328H104l80,72V320Z"/><rect class="cls-3" height="16" width="80" x="360" y="136"/><rect class="cls-3" height="16" width="80" x="384" y="184"/><rect class="cls-3" height="16" width="96" x="400" y="232"/><rect class="cls-4" height="15.99968" transform="translate(-43.18451 97.06749) rotate(-26.56505)" width="17.88854" x="175.05573" y="132.00016"/><path class="cls-5" d="M80,24H256a80,80,0,0,1,80,80v19.01779a79.99992,79.99992,0,0,1-4.10534,25.29822l-2.53624,7.60873a80,80,0,0,1-34.735,43.30121L280,208l-17.5727-29.28784a16,16,0,0,1,2.40618-19.54564l7.14394-7.14394a20.03855,20.03855,0,0,0,5.27086-19.02946v0a20.03855,20.03855,0,0,0-25.777-14.15017L248,120l-1.41833-7.09164A32,32,0,0,0,207.442,88.13951L181.94681,94.5133a80,80,0,0,1-94.58632-50.272Z"/><rect class="cls-3" height="16" width="80" x="416" y="384"/><rect class="cls-3" height="16" width="72" x="400" y="432"/><rect class="cls-3" height="16" width="72" x="376" y="480"/><path class="cls-4" d="M223.15527,195.57764l-14.31054-7.15528A20.831,20.831,0,0,1,190.11133,200H172l5.418,10.83594A31.973,31.973,0,0,0,180.66248,216h9.44885A36.74208,36.74208,0,0,0,223.15527,195.57764Z"/><path class="cls-6" d="M146.25409,366.02869,184,400V320l-6.74347-5.61963A135.93358,135.93358,0,0,1,146.25409,366.02869Z"/><rect class="cls-7" height="128" rx="16" width="128" x="24" y="360"/><rect class="cls-8" height="16" width="16" x="48" y="416"/><rect class="cls-8" height="16" width="16" x="80" y="416"/><rect class="cls-8" height="16" width="16" x="112" y="416"/><rect class="cls-8" height="16" width="16" x="48" y="448"/><rect class="cls-8" height="16" width="16" x="80" y="448"/><rect class="cls-8" height="16" width="16" x="112" y="448"/><rect class="cls-9" height="24" width="16" x="48" y="336"/><rect class="cls-9" height="24" width="16" x="112" y="336"/><path class="cls-10" d="M35.88483,487.44592A15.973,15.973,0,0,0,40,488h96a16,16,0,0,0,16-16V376a15.97414,15.97414,0,0,0-.55408-4.11523A128.02352,128.02352,0,0,1,35.88483,487.44592Z"/><path class="cls-11" d="M112,452.93237V464h16V448H116.93231Q114.53336,450.53253,112,452.93237Z"/><path class="cls-4" d="M152,392H24V376a16,16,0,0,1,16-16h96a16,16,0,0,1,16,16Z"/><path class="cls-12" d="M151.93146,374.64246c-.01776-.19715-.03638-.39392-.0614-.58875-.02277-.18774-.05591-.372-.08515-.55762-.08966-.54541-.19885-1.08435-.339-1.61132A127.59187,127.59187,0,0,1,147.95258,392H152V376C152,375.54175,151.96924,375.09106,151.93146,374.64246Z"/><path class="cls-13" d="M184,484.88V488H320v-.06006A15.9957,15.9957,0,0,1,336,472V401.31006A255.45917,255.45917,0,0,1,184,484.88Z"/><path class="cls-1" d="M396.45,348.73,362.92,457.7a42.92175,42.92175,0,0,1-77.82995,9.46l-.54-.8999a42.60989,42.60989,0,0,1-5.73-16.3501c-.01-.08984-.02-.16992-.03-.26A42.84489,42.84489,0,0,1,281.5,428.23l2.04-5.08008A42.90014,42.90014,0,0,1,304.19,400.7L321.6,392l7.24-25.36a40.60711,40.60711,0,0,0-18.91-46.45007A39.80683,39.80683,0,0,1,345.36,249.04l6.14,2.62988A80.00618,80.00618,0,0,1,396.45,348.73Z"/><path class="cls-6" d="M392.92,292.33a.33192.33192,0,0,1-.06-.1A256.32752,256.32752,0,0,1,278.79,449.6499c.01.09009.02.17017.03.26a42.60989,42.60989,0,0,0,5.73,16.3501l.54.8999a42.92247,42.92247,0,0,0,77.83-9.46l33.53-108.97A79.85666,79.85666,0,0,0,392.92,292.33Z"/><path class="cls-14" d="M407.98,360.09a.03653.03653,0,0,1,.01-.02991v.0199c0,.01-.01.02-.01.03Z"/><path class="cls-14" d="M407.99,352.14a.17519.17519,0,0,0-.01.05994v-.04C407.99,352.1499,407.99,352.1499,407.99,352.14Z"/><path class="cls-14" d="M408.01,336.01,408,336h.01Z"/><path class="cls-14" d="M408.02,351.92993c-.01.07007-.02.15-.03.20007v-.06994A.127.127,0,0,0,408,352a.10884.10884,0,0,0,.01-.05C408.01,351.93994,408.01,351.93994,408.02,351.92993Z"/><path class="cls-14" d="M408.03,351.86a.07506.07506,0,0,1-.01.03991V351.87Z"/><path class="cls-14" d="M408.04,359.86c.03-.08.05-.13.06-.16-.02.07007-.06.23-.1.38V360.03l-.01.03a.07567.07567,0,0,1,.01-.04V360l.01-.04v-.03h.01c.01-.03992.01-.05993.01-.03992A.0369.0369,0,0,0,408.04,359.86Z"/><path class="cls-14" d="M424,312v-.01c-.1-.85.06.26.06.33008A1.56359,1.56359,0,0,1,424,312.01Z"/><rect height="16" width="80" x="360" y="136"/><rect height="16" width="80" x="384" y="184"/><rect height="16" width="96" x="400" y="232"/><rect height="15.99968" transform="translate(-43.18451 97.06749) rotate(-26.56505)" width="17.88854" x="175.05573" y="132.00016"/><path d="M354.65088,244.31982l-6.14014-2.63134a47.59344,47.59344,0,0,0-10.5011-3.111l-41.95886-12.52282c-.57709-.17237-1.16077-.3086-1.74542-.43653l-4.68665-14.05981,9.12055-5.47241a88.05478,88.05478,0,0,0,38.20849-47.63135l2.53614-7.60889A87.837,87.837,0,0,0,344,123.01758V104a88.09957,88.09957,0,0,0-88-88H68.57861L79.8418,46.9751a87.76048,87.76048,0,0,0,48.702,51.15527l-.23614.06738,15.41162,53.94043-3.88672,15.54737a24.11078,24.11078,0,0,0,15.69385,28.58935l6.80029,2.2666,7.936,15.87207a39.95634,39.95634,0,0,0,26.07519,20.91748l8.40869,2.10206a7.98385,7.98385,0,0,1,5.82031,5.8208l3.76972,15.07837a88.565,88.565,0,0,0-34.68134,47.63317l-36.52783-30.43957-2.47461-9.89893a48.93191,48.93191,0,0,0-28.04-32.92529l-4.13037-1.77A48.66254,48.66254,0,0,0,51.92969,306.8125l9.73242,11.67822A48.53189,48.53189,0,0,0,99.04541,336h1.88477L118.708,352H64V336H48v16H40a24.02687,24.02687,0,0,0-24,24v96a24.02687,24.02687,0,0,0,24,24h96a24.02687,24.02687,0,0,0,24-24V389.16272l16,14.4V496H320v-.063c.632.024,1.262.063,1.897.063a50.66331,50.66331,0,0,0,48.66748-35.94482L404.09473,351.084A87.83809,87.83809,0,0,0,354.65088,244.31982ZM94.87891,41.50732,91.42139,32H256a72.08124,72.08124,0,0,1,72,72v19.01758a71.87105,71.87105,0,0,1-3.69482,22.76855L321.769,153.395a72.04623,72.04623,0,0,1-31.26123,38.97119l-7.76367,4.65772-13.457-22.42725a7.98931,7.98931,0,0,1,1.20312-9.77344l7.144-7.144a28.04489,28.04489,0,0,0-23.48535-47.62109,40.001,40.001,0,0,0-48.64747-29.67969l-25.49511,6.37353A71.83385,71.83385,0,0,1,94.87891,41.50732ZM208.627,221.91064l-8.40771-2.102a23.99171,23.99171,0,0,1-8.2912-3.87158,36.71206,36.71206,0,0,0,31.22723-20.35937l-14.31054-7.15528A20.831,20.831,0,0,1,190.11133,200h-9.16724l-7.27075-14.5415-13.0874-4.36231a8.0369,8.0369,0,0,1-5.231-9.52978l4.92578-19.70459L146.45428,103.469a87.521,87.521,0,0,0,15.91,1.468,88.69071,88.69071,0,0,0,21.523-2.6626l25.49511-6.37353a23.99989,23.99989,0,0,1,29.3545,18.57617l3.1958,15.97852,12.06836-4.02344a12.03863,12.03863,0,0,1,15.48584,8.50195,12.0982,12.0982,0,0,1-3.166,11.43164l-7.144,7.144a23.9657,23.9657,0,0,0-3.60938,29.31884l17.12146,28.53577,5.44977,16.34937-49.3233,22.56286-2.726-10.90307A23.95721,23.95721,0,0,0,208.627,221.91064ZM136,480H40a8.00917,8.00917,0,0,1-8-8V400H144v72A8.00917,8.00917,0,0,1,136,480Zm8-96H32v-8a8.00917,8.00917,0,0,1,8-8h96.48578L144,374.7627Zm-36.93018-64H99.04541a32.57458,32.57458,0,0,1-25.0918-11.75244l-9.73193-11.67822a32.66232,32.66232,0,0,1,37.958-50.93164l4.13037,1.77a32.843,32.843,0,0,1,18.82031,22.1001l3.7417,14.96631,47.41541,39.5127c-.18476,2.30542-.28748,4.62658-.28748,6.9624v51.08813ZM192,330.94922a72.23718,72.23718,0,0,1,41.49707-65.21973l52.36133-23.95263a8.00042,8.00042,0,0,1,5.61621-.39063l12.74091,3.80273a47.78329,47.78329,0,0,0,1.74493,81.94727,32.56829,32.56829,0,0,1,15.18945,37.30469l-6.27929,21.97754-14.25684,7.12842a50.87149,50.87149,0,0,0-24.50586,26.6333l-2.03271,5.082a51.20339,51.20339,0,0,0,3.61425,45.10986l.54444.90625A50.33746,50.33746,0,0,0,284.89014,480H192Zm196.80176,15.42969L355.27246,455.3501A34.74452,34.74452,0,0,1,321.897,480a35.09629,35.09629,0,0,1-29.94385-16.9541l-.54394-.90674a35.11438,35.11438,0,0,1-2.47852-30.93506l2.03272-5.082A34.89009,34.89009,0,0,1,307.769,407.85742l20.55274-10.27588,8.21289-28.74511a48.53475,48.53475,0,0,0-22.63574-55.5918,31.89234,31.89234,0,0,1-14.394-37.67334A31.80726,31.80726,0,0,1,342.208,256.39453l6.14013,2.63135A71.8671,71.8671,0,0,1,388.80176,346.37891Z"/><rect height="16" width="16" x="48" y="416"/><rect height="16" width="16" x="80" y="416"/><rect height="16" width="16" x="112" y="416"/><rect height="16" width="16" x="48" y="448"/><rect height="16" width="16" x="80" y="448"/><rect height="16" width="16" x="112" y="448"/><rect height="16" width="80" x="416" y="384"/><rect height="16" width="72" x="400" y="432"/><rect height="16" width="72" x="376" y="480"/></g></svg>